<?xml version="1.0" standalone="no"?>
<!DOCTYPE svg PUBLIC "-//W3C//DTD SVG 20010904//EN"
 "http://www.w3.org/TR/2001/REC-SVG-20010904/DTD/svg10.dtd">
<svg version="1.0" xmlns="http://www.w3.org/2000/svg"
 width="161.000000pt" height="161.000000pt" viewBox="0 0 161.000000 161.000000"
 preserveAspectRatio="xMidYMid meet">
<metadata>
Created by potrace 1.14, written by Peter Selinger 2001-2017
</metadata>
<g transform="translate(0.000000,161.000000) scale(0.100000,-0.100000)"
fill="#000000" stroke="none">
<path d="M793 1485 c0 -8 4 -12 9 -9 5 3 6 10 3 15 -9 13 -12 11 -12 -6z"/>
<path d="M750 1486 c0 -2 8 -10 18 -17 15 -13 16 -12 3 4 -13 16 -21 21 -21
13z"/>
<path d="M973 1475 c0 -8 4 -12 9 -9 5 3 6 10 3 15 -9 13 -12 11 -12 -6z"/>
<path d="M695 1471 c-3 -5 -1 -12 4 -16 6 -3 3 -14 -7 -26 -17 -20 -17 -20
-34 2 -10 12 -18 16 -18 10 0 -7 -4 -9 -10 -6 -5 3 -7 0 -4 -9 4 -11 0 -14
-15 -11 -12 2 -21 0 -21 -4 0 -5 -11 -6 -24 -4 -13 3 -26 1 -30 -5 -3 -5 6 -7
22 -4 15 3 23 1 19 -4 -5 -5 -14 -9 -20 -9 -5 0 -12 -7 -14 -15 -3 -9 -1 -11
4 -5 4 6 16 11 26 12 40 2 42 3 27 14 -13 9 -12 10 3 5 10 -3 15 -2 12 4 -3 5
4 7 15 5 11 -2 20 1 20 7 0 7 4 7 13 -1 10 -8 17 -7 25 1 9 9 12 9 12 0 0 -7
-5 -12 -11 -12 -5 0 -7 -6 -3 -12 4 -7 4 -10 -1 -6 -4 4 -15 2 -24 -5 -14 -10
-14 -10 -3 5 12 15 11 17 -7 15 -12 -1 -19 -7 -17 -13 2 -6 -3 -11 -12 -10 -9
0 -16 -5 -14 -12 2 -9 -3 -10 -16 -3 -21 11 -56 -5 -46 -21 4 -7 2 -8 -5 -4
-6 4 -9 12 -6 17 4 5 1 9 -5 9 -6 0 -9 4 -6 9 3 5 -1 11 -9 14 -11 5 -12 1 -5
-18 7 -17 5 -25 -6 -29 -8 -3 -13 -10 -10 -14 3 -5 -5 -8 -17 -8 -16 1 -21 -4
-19 -16 2 -10 -2 -18 -8 -18 -6 0 -8 5 -4 12 5 8 1 9 -12 5 -18 -7 -18 -7 0 8
11 8 21 22 22 31 1 9 0 13 -3 10 -4 -3 -12 -1 -19 5 -9 7 -14 6 -20 -3 -4 -7
-4 -10 1 -6 4 4 14 3 22 -3 11 -10 10 -14 -4 -24 -10 -7 -22 -11 -26 -8 -5 3
-4 9 3 13 8 5 8 9 -3 13 -11 4 -15 1 -12 -12 2 -10 -1 -24 -6 -32 -5 -8 -9
-10 -9 -6 0 4 -10 -1 -22 -12 -11 -11 -25 -18 -29 -15 -4 2 -11 -1 -15 -8 -4
-7 -4 -10 1 -6 4 4 16 3 26 -2 12 -7 20 -6 25 2 4 7 3 8 -4 4 -7 -4 -12 -3
-12 2 0 6 7 12 15 16 9 3 15 0 15 -9 0 -9 6 -12 18 -9 14 5 14 4 2 -4 -8 -6
-17 -9 -21 -6 -4 2 -13 -4 -20 -13 -12 -14 -11 -15 11 -9 23 6 23 6 5 -5 -11
-7 -26 -20 -33 -28 -8 -9 -11 -10 -7 -4 17 34 13 49 -13 50 -15 0 -19 -1 -9
-4 18 -5 24 -33 6 -33 -5 0 -7 -6 -4 -12 4 -7 0 -5 -9 6 -16 19 -36 14 -36
-10 0 -8 -6 -14 -12 -15 -7 0 -3 -5 9 -11 28 -14 29 -29 2 -54 -20 -18 -20
-19 -2 -32 15 -12 15 -14 1 -9 -25 9 -44 -19 -27 -40 8 -9 9 -14 3 -10 -7 4
-18 -1 -25 -10 -12 -14 -11 -15 11 -8 l25 7 -21 -18 c-15 -14 -20 -29 -19 -56
2 -21 -3 -39 -10 -41 -6 -3 -12 1 -12 9 0 7 5 10 11 7 6 -4 5 0 -2 9 -10 13
-10 17 0 20 9 3 9 6 0 12 -7 4 -12 3 -12 -2 0 -6 -10 -8 -23 -6 -20 4 -20 4
-2 -4 13 -6 20 -19 21 -43 1 -37 -12 -62 -29 -52 -6 4 -7 1 -1 -8 13 -22 15
-49 3 -46 -6 1 -13 -4 -15 -11 -1 -7 0 -8 3 -2 3 8 9 7 19 -1 8 -6 14 -10 15
-8 7 34 6 45 -2 55 -6 8 -5 13 3 16 17 7 38 -1 38 -14 0 -6 -6 -6 -15 2 -10 8
-15 9 -15 2 0 -6 8 -16 18 -21 16 -10 15 -10 -3 -11 l-20 -1 20 -16 c18 -14
18 -15 2 -9 -13 4 -17 2 -15 -6 3 -7 10 -13 16 -13 5 0 14 -4 19 -9 5 -5 3 -6
-5 -2 -7 4 -12 2 -12 -5 0 -7 -7 -4 -15 7 -8 10 -15 14 -15 8 0 -13 35 -55 41
-49 3 2 5 -4 5 -15 0 -10 -3 -17 -7 -14 -4 2 -9 1 -12 -3 -2 -5 -2 -2 0 5 5
21 -8 36 -18 21 -6 -10 -9 -8 -9 8 0 12 -5 25 -10 28 -6 4 -8 10 -6 14 3 4 -1
8 -9 8 -10 0 -12 -4 -5 -12 5 -7 6 -16 2 -20 -4 -5 -1 -5 5 -1 9 5 13 0 13
-13 0 -10 -6 -22 -12 -25 -7 -3 -4 -4 6 -3 10 1 21 -4 23 -10 3 -7 0 -13 -6
-13 -6 0 -11 -5 -11 -11 0 -6 5 -7 13 -2 22 14 45 13 51 -3 3 -8 2 -12 -4 -9
-21 13 -9 -10 17 -32 14 -13 22 -23 17 -23 -6 0 -15 5 -22 12 -9 9 -12 8 -12
-5 0 -9 5 -17 10 -17 6 0 10 -5 10 -11 0 -6 -8 -8 -19 -4 -11 3 -22 1 -26 -4
-4 -7 1 -8 11 -4 12 4 15 3 10 -5 -4 -7 -1 -15 8 -18 8 -3 14 -11 12 -17 -1
-7 -1 -9 1 -4 3 4 9 7 14 7 13 0 7 -23 -11 -38 -8 -8 -10 -11 -3 -8 6 4 14 2
17 -3 3 -5 15 -7 26 -4 11 3 17 9 14 15 -3 5 -12 4 -20 -3 -10 -8 -14 -8 -14
0 0 6 5 11 10 11 6 0 10 5 10 11 0 5 -4 8 -9 4 -6 -3 -8 7 -6 22 2 16 2 22 -1
16 -8 -17 -21 -16 -21 1 0 18 32 13 32 -5 1 -21 15 -40 26 -34 5 4 6 -2 2 -11
-5 -13 -2 -16 9 -12 8 4 15 1 15 -8 0 -7 -4 -11 -9 -8 -4 3 -16 0 -25 -5 -11
-6 -13 -11 -5 -11 7 0 11 -4 8 -8 -8 -13 11 -35 23 -28 6 4 9 12 5 17 -3 5 -9
7 -13 5 -4 -3 -8 1 -8 9 0 8 5 11 11 7 6 -3 17 -7 25 -7 8 0 15 -6 17 -13 1
-7 0 -8 -3 -2 -2 5 -9 10 -14 10 -6 0 -7 -4 -4 -10 3 -5 3 -16 -2 -22 -13 -21
-12 -37 3 -49 10 -8 14 -8 14 0 0 6 -5 11 -11 11 -5 0 -7 5 -3 11 4 8 9 8 17
0 14 -14 40 -14 32 -1 -4 6 -12 7 -18 4 -7 -4 -9 -3 -4 1 4 5 18 10 30 12 12
2 17 0 12 -4 -6 -5 -10 -15 -10 -23 1 -8 -4 -25 -11 -37 -12 -18 -11 -21 4
-18 10 1 16 9 14 19 -2 9 2 16 7 16 6 0 8 8 4 18 -3 9 -3 14 2 10 11 -10 13
-51 3 -65 -6 -7 -4 -14 3 -19 8 -4 9 -3 5 4 -4 7 -2 12 3 12 6 0 11 -4 11 -9
0 -6 9 -10 20 -10 11 -1 29 -1 40 -2 27 0 25 -15 -2 -22 -12 -4 -19 -9 -16
-12 3 -4 15 -2 27 4 13 7 22 8 26 1 3 -5 1 -10 -4 -10 -6 0 -11 -5 -11 -11 0
-6 5 -7 13 -2 21 13 36 12 49 -4 7 -9 12 -18 11 -20 -12 -15 0 -23 15 -10 9 8
22 16 27 17 6 0 9 10 7 20 -2 11 1 20 7 20 6 0 8 -6 5 -13 -3 -8 2 -14 11 -14
10 0 14 6 10 16 -4 12 -2 12 9 -2 10 -13 15 -14 18 -6 3 9 6 8 10 -3 5 -12 0
-15 -21 -13 -19 2 -32 -4 -41 -19 -12 -19 -12 -20 4 -7 15 12 19 13 26 1 7
-11 11 -11 23 -1 13 10 17 9 26 -6 6 -10 11 -13 11 -6 0 6 -5 15 -11 19 -8 5
-6 10 6 16 11 7 21 6 28 -2 9 -8 8 -10 -3 -7 -8 2 -12 2 -7 0 4 -3 7 -11 7
-19 0 -8 4 -14 10 -14 5 0 7 6 4 13 -5 15 22 17 44 3 7 -4 19 -3 26 3 7 6 17
7 21 3 5 -4 5 -1 1 6 -4 7 -2 12 5 12 8 0 9 4 0 13 -8 10 -7 14 4 14 8 0 12
-4 9 -9 -3 -4 0 -8 7 -8 8 0 7 -5 -2 -17 -8 -9 -9 -14 -3 -10 7 4 14 0 18 -8
3 -8 11 -15 18 -14 10 0 10 2 1 6 -25 10 -12 20 20 17 20 -2 27 -1 19 5 -8 4
-14 12 -15 17 -1 5 -5 8 -9 7 -5 -2 -8 2 -8 8 0 6 7 9 15 5 8 -3 19 2 24 11 7
14 12 15 24 5 9 -8 18 -9 21 -3 3 5 1 11 -6 13 -9 3 -9 6 0 12 7 4 12 2 12 -3
0 -6 4 -11 10 -11 5 0 7 8 3 18 -5 14 -3 13 11 -3 17 -20 17 -20 12 5 -3 14
-3 19 0 12 3 -6 10 -9 16 -6 6 4 6 -1 -1 -13 -6 -11 -8 -23 -5 -26 8 -7 54 14
54 25 0 13 -18 9 -23 -4 -2 -7 -7 -11 -10 -8 -3 3 -2 12 3 20 7 11 14 12 34 2
19 -8 27 -8 32 0 4 7 3 8 -4 4 -7 -4 -12 -3 -12 3 0 15 18 23 25 11 3 -5 12
-10 18 -10 8 0 8 3 -1 9 -8 4 -13 11 -13 15 3 17 -1 18 -19 1 -11 -10 -20 -13
-20 -8 0 6 7 14 16 17 9 4 12 11 8 18 -5 8 1 7 16 -3 28 -18 50 -15 50 7 0 17
12 18 26 4 7 -7 11 -6 11 4 0 9 -9 13 -24 11 -12 -1 -23 1 -24 4 0 3 -2 14 -4
24 -2 9 1 15 6 11 5 -3 7 -10 3 -15 -3 -5 7 -8 24 -7 20 1 28 6 25 15 -4 11
-8 11 -22 1 -15 -12 -15 -11 -1 6 14 18 13 19 -2 13 -12 -4 -15 -2 -11 8 3 8
9 12 14 9 5 -3 9 0 9 6 0 7 5 6 14 -2 8 -7 11 -15 7 -18 -4 -3 -1 -16 7 -30
l14 -25 -6 27 c-5 21 0 31 24 52 28 23 29 27 18 48 -7 13 -17 27 -23 31 -6 5
-3 7 8 3 19 -6 22 4 7 22 -7 9 -7 9 2 2 15 -13 45 -13 53 0 4 6 -3 9 -16 7
-12 -1 -23 4 -25 11 -1 7 0 8 3 2 2 -5 9 -10 14 -10 6 0 8 4 4 9 -3 5 0 13 6
17 7 4 9 3 6 -2 -3 -6 6 -11 21 -12 l27 -2 -29 15 c-15 8 -31 13 -35 10 -4 -2
-8 2 -8 9 0 7 6 13 14 13 7 0 13 -4 13 -9 0 -4 10 -7 23 -7 18 1 18 2 4 6 -11
3 -16 11 -13 19 3 8 -1 17 -9 20 -12 5 -12 8 0 20 18 18 31 18 16 0 -7 -8 -8
-17 -3 -20 6 -3 12 4 15 15 3 12 10 18 16 15 5 -4 13 -1 17 5 4 7 3 9 -4 5 -6
-3 -13 -2 -17 4 -3 5 -1 10 5 10 6 0 8 5 4 11 -4 8 -9 7 -15 -2 -4 -7 -5 -17
-2 -23 3 -5 1 -6 -6 -2 -6 4 -8 12 -5 18 4 6 -1 17 -11 25 -11 7 -14 13 -9 13
6 0 16 -6 23 -12 11 -11 13 -10 7 5 -3 10 -6 21 -6 23 0 3 -6 2 -12 -2 -7 -4
-9 -3 -5 1 12 14 36 14 31 1 -6 -14 23 -42 33 -32 3 3 1 6 -6 6 -7 0 -9 5 -5
12 4 7 3 8 -4 4 -19 -11 -14 5 6 21 9 8 12 12 5 9 -15 -8 -44 4 -38 15 3 4 12
6 20 3 16 -7 17 37 1 48 -6 4 -3 14 8 26 11 13 14 22 7 27 -6 3 -11 3 -11 -2
0 -4 -6 3 -13 17 -8 14 -19 24 -26 22 -7 -1 -3 11 9 28 17 23 20 34 11 43 -6
6 -11 14 -11 18 0 9 27 5 37 -6 4 -4 2 -5 -4 -1 -16 9 -17 -10 -2 -20 8 -4 7
-9 -2 -15 -8 -5 -9 -9 -3 -9 5 0 19 7 30 15 17 14 17 14 1 9 -13 -5 -18 -2
-17 7 4 29 -1 39 -19 39 -11 0 -23 5 -27 11 -4 8 0 9 15 4 16 -5 20 -3 15 10
-4 9 -3 15 2 14 22 -4 35 2 28 12 -4 8 -9 7 -15 -2 -5 -8 -9 -10 -9 -5 0 5 -7
3 -15 -4 -13 -11 -14 -10 -8 6 6 17 5 18 -11 5 -15 -12 -17 -12 -14 0 2 8 -2
13 -9 12 -7 -2 -10 4 -6 12 5 13 7 13 20 -2 14 -17 14 -17 9 2 -6 18 -5 18 7
3 8 -10 18 -13 26 -9 9 6 7 10 -8 14 -22 5 -24 25 -6 40 6 5 -1 5 -15 2 -20
-6 -23 -5 -12 6 6 7 12 18 12 24 0 5 -5 2 -11 -7 -5 -10 -15 -18 -21 -18 -7 0
-6 5 2 15 9 11 9 15 1 15 -7 0 -10 4 -6 9 3 5 0 13 -6 17 -8 4 -9 3 -5 -4 4
-7 1 -12 -6 -12 -10 0 -9 -3 2 -11 10 -7 11 -9 2 -7 -8 2 -13 7 -13 11 1 4 1
13 1 21 0 8 8 17 18 19 15 4 15 5 0 6 -9 0 -24 -6 -32 -15 -21 -21 -20 -5 1
18 16 18 16 18 -2 12 -14 -6 -16 -4 -10 6 5 9 4 11 -4 6 -6 -4 -9 -11 -6 -16
3 -5 1 -11 -4 -14 -5 -4 -8 6 -6 21 1 15 -4 33 -11 41 -8 7 -12 18 -9 23 4 5
1 9 -5 9 -6 0 -10 -8 -8 -17 2 -10 -4 -19 -14 -21 -10 -2 -18 2 -18 8 0 6 4 9
8 6 5 -3 9 1 9 9 0 8 -3 14 -6 13 -19 -2 -31 3 -27 11 7 10 -13 9 -31 -2 -6
-4 -14 -3 -18 3 -3 5 -1 10 4 10 6 0 11 5 11 12 0 6 -3 8 -7 5 -3 -4 -16 1
-27 10 -21 18 -21 18 -2 -4 11 -13 16 -23 11 -23 -4 0 -2 -6 4 -14 9 -11 9
-16 0 -22 -8 -4 -9 -3 -5 4 4 7 3 12 -3 12 -5 0 -12 9 -16 19 -3 10 -15 21
-26 24 -12 3 -18 10 -14 16 3 6 1 11 -4 11 -6 0 -11 -7 -11 -17 0 -15 -14 -10
-16 5 0 4 -4 15 -9 25 -7 16 -8 16 -20 1 -11 -15 -13 -15 -30 7 -11 15 -15 17
-12 7 4 -10 2 -18 -4 -18 -6 0 -7 -6 -3 -12 5 -10 4 -10 -6 -1 -9 9 -19 9 -33
2 -15 -9 -18 -8 -12 2 6 9 3 11 -9 6 -11 -4 -28 1 -43 13 -14 11 -21 20 -15
20 6 0 13 -4 16 -9 3 -4 22 -7 43 -5 25 2 32 0 23 -6 -11 -7 -10 -9 6 -8 11 1
21 7 21 14 0 8 -11 11 -30 8 -25 -3 -27 -1 -16 12 9 12 10 17 0 27 -10 9 -11
8 -6 -5 8 -20 -29 -45 -40 -28 -4 6 -16 8 -28 4 -20 -6 -21 -5 -7 11 8 11 10
16 3 12 -6 -4 -14 -1 -17 5 -3 7 -4 4 -3 -6 1 -10 -4 -21 -12 -24 -9 -3 -11 0
-6 8 5 9 4 11 -3 6 -7 -4 -12 -2 -12 3 0 6 -5 11 -11 11 -8 0 -8 -5 1 -15 15
-18 -1 -20 -19 -2 -11 10 -13 10 -7 0 4 -8 1 -13 -8 -13 -10 0 -13 6 -9 18 3
11 0 9 -11 -6 -10 -12 -22 -20 -27 -16 -6 3 -3 12 8 19 17 13 17 13 -2 12 -11
-1 -19 3 -17 11 2 14 -4 16 -13 3z m41 -50 c8 7 14 6 20 -2 4 -7 3 -9 -4 -5
-6 3 -13 2 -17 -4 -3 -5 -1 -10 6 -10 7 0 10 -2 7 -5 -9 -9 -36 6 -43 23 -5
14 -4 14 6 5 9 -9 16 -9 25 -2z m78 -3 c-3 -4 -1 -8 5 -8 5 0 13 5 17 11 4 8
9 8 18 -1 15 -15 -12 -32 -35 -20 -9 5 -19 6 -23 3 -3 -3 -6 -1 -6 6 0 7 -5 9
-12 5 -6 -4 -8 -3 -5 2 3 5 15 10 26 10 11 0 17 -4 15 -8z m76 -28 c0 -5 -2
-10 -4 -10 -3 0 -8 5 -11 10 -3 6 -1 10 4 10 6 0 11 -4 11 -10z m133 -15 c-7
-21 -13 -19 -13 6 0 11 4 18 10 14 5 -3 7 -12 3 -20z m42 5 c-6 -10 13 -24 38
-25 23 -2 41 -20 33 -34 -4 -6 -15 -10 -24 -10 -15 1 -15 2 1 6 26 7 20 21 -9
21 -15 0 -31 7 -36 15 -5 9 -15 14 -23 11 -18 -7 -20 7 -3 24 12 12 32 6 23
-8z m137 -79 c-22 -22 -27 -19 -12 8 6 12 15 19 20 16 5 -3 2 -14 -8 -24z
m-57 -1 c-3 -5 -12 -10 -18 -10 -7 0 -6 4 3 10 19 12 23 12 15 0z m89 -5 c-4
-8 -11 -12 -17 -8 -7 4 -8 0 -3 -13 6 -16 5 -17 -6 -6 -11 11 -10 16 6 28 25
18 27 18 20 -1z m-794 -30 c0 0 -11 -2 -25 -3 -27 -2 -28 -1 -19 21 5 14 8 13
25 -1 10 -9 19 -17 19 -17z m855 5 c3 -5 -1 -10 -9 -10 -9 0 -16 5 -16 10 0 6
4 10 9 10 6 0 13 -4 16 -10z m-31 -25 c3 -8 1 -17 -5 -20 -5 -4 -8 -1 -7 7 2
7 -2 12 -8 11 -6 -1 -11 4 -11 12 0 16 23 9 31 -10z m-964 -81 c0 -8 -8 -14
-17 -13 -10 0 -13 3 -6 5 7 3 9 12 6 21 -4 11 -2 14 5 9 7 -4 12 -14 12 -22z
m27 -17 c0 -8 -6 -14 -13 -14 -7 0 -10 6 -7 14 3 7 8 13 12 13 4 0 8 -6 8 -13z
m1053 -15 c0 -5 -7 -9 -15 -9 -8 0 -12 4 -9 9 3 4 9 8 15 8 5 0 9 -4 9 -8z
m-1110 -96 c0 -3 -4 -8 -10 -11 -5 -3 -10 -1 -10 4 0 6 5 11 10 11 6 0 10 -2
10 -4z m1140 -66 c0 -5 -5 -10 -11 -10 -5 0 -7 5 -4 10 3 6 8 10 11 10 2 0 4
-4 4 -10z m31 -105 c15 10 10 -1 -10 -19 -17 -16 -19 -15 -36 11 -18 27 -18
27 0 13 17 -14 17 -13 11 10 l-8 25 17 -23 c9 -12 21 -20 26 -17z m-6 -66 c2
-9 -7 -15 -23 -16 -16 -1 -20 2 -12 7 7 4 10 12 6 18 -3 6 1 9 11 8 9 -2 17
-9 18 -17z m-53 -131 c-8 -8 -9 -4 -5 13 4 13 8 18 11 10 2 -7 -1 -18 -6 -23z
m-66 -235 c-25 -27 -35 -22 -28 14 4 20 7 23 10 10 2 -9 8 -15 13 -12 5 4 4
15 -2 28 -12 22 -12 22 8 2 20 -20 20 -20 -1 -42z m-946 -61 c0 -5 -7 -9 -15
-9 -8 0 -12 4 -9 9 3 4 9 8 15 8 5 0 9 -4 9 -8z m845 -51 c-6 -6 -15 -4 -23 5
-8 9 -9 14 -2 14 6 0 8 6 4 13 -4 6 1 4 12 -5 11 -11 15 -21 9 -27z m-756 -7
c-12 -15 -11 -16 11 -9 24 7 24 7 5 -9 -16 -13 -17 -15 -2 -10 9 3 17 2 17 -4
0 -15 -30 -8 -40 8 -8 13 4 40 17 40 3 0 -1 -7 -8 -16z m674 -28 c4 -10 1 -13
-9 -9 -7 3 -14 9 -14 14 0 14 17 10 23 -5z m-558 -30 c7 3 19 -4 27 -15 8 -12
17 -18 21 -15 3 3 11 -4 17 -16 7 -13 8 -20 2 -16 -6 3 -13 2 -17 -4 -3 -5
-11 -10 -16 -10 -6 0 -8 4 -5 9 3 4 -3 16 -14 26 -11 10 -20 14 -20 10 0 -15
-24 14 -26 31 -2 12 1 13 8 6 6 -6 16 -8 23 -6z m175 -40 c0 -3 -4 -8 -10 -11
-5 -3 -10 -1 -10 4 0 6 5 11 10 11 6 0 10 -2 10 -4z m50 -11 c0 4 8 1 17 -6
15 -12 16 -12 10 6 -7 19 -6 19 7 3 7 -10 16 -18 19 -18 4 0 4 8 1 18 -5 14
-4 15 5 2 14 -20 -13 -50 -30 -33 -6 6 -17 9 -23 7 -6 -2 -17 6 -25 18 -13 21
-13 22 2 9 10 -7 17 -10 17 -6z m125 5 c-6 -9 8 -14 28 -11 5 1 6 -3 3 -8 -10
-16 -42 -8 -43 11 -1 10 3 18 8 18 6 0 7 -4 4 -10z m-205 -26 c0 -8 -19 -13
-24 -6 -3 5 1 9 9 9 8 0 15 -2 15 -3z"/>
<path d="M1410 849 c0 -5 5 -7 10 -4 6 3 10 8 10 11 0 2 -4 4 -10 4 -5 0 -10
-5 -10 -11z"/>
<path d="M557 237 c3 -4 8 -6 11 -3 3 3 14 -2 25 -11 19 -17 19 -17 6 4 -7 12
-21 21 -30 20 -10 -1 -15 -5 -12 -10z"/>
<path d="M666 1447 c3 -10 9 -15 12 -12 3 3 0 11 -7 18 -10 9 -11 8 -5 -6z"/>
<path d="M905 1450 c-3 -5 -1 -10 4 -10 6 0 11 5 11 10 0 6 -2 10 -4 10 -3 0
-8 -4 -11 -10z"/>
<path d="M482 1358 c-15 -15 -16 -31 0 -26 6 2 12 12 14 21 3 20 2 21 -14 5z"/>
<path d="M1335 1270 c3 -5 8 -10 11 -10 2 0 4 5 4 10 0 6 -5 10 -11 10 -5 0
-7 -4 -4 -10z"/>
<path d="M234 1135 c1 -8 5 -18 9 -21 15 -15 6 -26 -10 -13 -14 12 -15 12 -9
0 5 -8 3 -17 -5 -22 -10 -6 -10 -9 -2 -9 8 0 10 -7 6 -17 -6 -15 -5 -16 9 -3
9 9 12 18 6 21 -5 4 -3 9 6 12 8 3 20 16 26 28 8 15 9 19 1 15 -6 -4 -11 -3
-11 2 0 6 -6 12 -14 15 -8 3 -13 0 -12 -8z"/>
<path d="M196 1057 c3 -10 9 -15 12 -12 3 3 0 11 -7 18 -10 9 -11 8 -5 -6z"/>
<path d="M1455 1030 c3 -5 8 -10 11 -10 2 0 4 5 4 10 0 6 -5 10 -11 10 -5 0
-7 -4 -4 -10z"/>
<path d="M188 1008 c2 -10 8 -18 12 -18 8 0 35 29 29 31 -34 7 -46 4 -41 -13z"/>
<path d="M150 996 c0 -2 7 -7 16 -10 8 -3 12 -2 9 4 -6 10 -25 14 -25 6z"/>
<path d="M193 973 c4 -3 -1 -12 -11 -19 -16 -12 -15 -13 4 -11 21 1 32 37 12
37 -6 0 -8 -3 -5 -7z"/>
<path d="M1416 935 c-7 -20 17 -29 42 -16 11 6 22 8 26 6 3 -3 4 -2 1 2 -8 11
-35 12 -35 2 0 -5 -8 -9 -17 -9 -14 0 -15 2 -4 9 8 5 9 11 3 15 -5 3 -13 -1
-16 -9z"/>
<path d="M1455 890 c3 -5 8 -10 11 -10 2 0 4 5 4 10 0 6 -5 10 -11 10 -5 0 -7
-4 -4 -10z"/>
<path d="M147 876 c-4 -10 -1 -13 9 -9 15 6 19 23 5 23 -5 0 -11 -7 -14 -14z"/>
<path d="M160 850 c-9 -6 -10 -10 -3 -10 6 0 15 5 18 10 8 12 4 12 -15 0z"/>
<path d="M1455 830 c3 -5 8 -10 11 -10 2 0 4 5 4 10 0 6 -5 10 -11 10 -5 0 -7
-4 -4 -10z"/>
<path d="M1416 624 c-8 -20 -8 -24 2 -24 4 0 8 9 9 20 2 24 -3 26 -11 4z"/>
<path d="M201 621 c-10 -6 -10 -10 -1 -16 8 -5 6 -13 -7 -28 -10 -12 -11 -17
-3 -10 14 11 21 13 36 13 4 0 1 7 -6 15 -6 8 -9 19 -5 25 7 12 4 12 -14 1z"/>
<path d="M173 595 c0 -8 4 -12 9 -9 5 3 6 10 3 15 -9 13 -12 11 -12 -6z"/>
<path d="M150 550 c0 -5 5 -10 11 -10 5 0 7 5 4 10 -3 6 -8 10 -11 10 -2 0 -4
-4 -4 -10z"/>
<path d="M1345 500 c-8 -13 3 -30 18 -29 9 0 9 2 0 6 -7 2 -13 9 -13 14 0 4 7
6 15 3 8 -4 15 -4 15 -1 0 10 -30 16 -35 7z"/>
<path d="M215 470 c3 -5 8 -10 11 -10 2 0 4 5 4 10 0 6 -5 10 -11 10 -5 0 -7
-4 -4 -10z"/>
<path d="M1330 389 c0 -5 5 -7 10 -4 6 3 10 8 10 11 0 2 -4 4 -10 4 -5 0 -10
-5 -10 -11z"/>
<path d="M366 314 c-11 -8 -16 -14 -10 -14 13 0 39 18 34 24 -3 2 -14 -2 -24
-10z"/>
<path d="M1219 298 c-5 -18 -6 -38 -1 -34 7 8 12 36 6 36 -2 0 -4 -1 -5 -2z"/>
<path d="M389 253 c-13 -16 -12 -17 4 -4 16 13 21 21 13 21 -2 0 -10 -8 -17
-17z"/>
<path d="M455 241 c-3 -5 0 -13 6 -17 7 -4 9 -3 5 4 -3 6 2 13 11 15 16 4 16
5 1 6 -9 0 -19 -3 -23 -8z"/>
<path d="M1031 221 c-18 -18 -21 -19 -29 -4 -6 10 -11 12 -16 4 -4 -6 -2 -19
3 -28 6 -10 11 -13 11 -8 0 6 9 11 20 12 11 1 18 -2 15 -7 -3 -6 1 -7 10 -4
14 6 14 8 -2 20 -15 11 -15 13 -2 14 8 0 21 -6 29 -12 12 -11 12 -10 0 7 -8
11 -15 22 -16 23 -1 2 -12 -6 -23 -17z"/>
<path d="M550 190 c0 -5 7 -7 15 -4 8 4 15 8 15 10 0 2 -7 4 -15 4 -8 0 -15
-4 -15 -10z"/>
<path d="M800 156 c0 -2 7 -7 16 -10 8 -3 12 -2 9 4 -6 10 -25 14 -25 6z"/>
<path d="M868 153 c6 -2 18 -2 25 0 6 3 1 5 -13 5 -14 0 -19 -2 -12 -5z"/>
<path d="M850 129 c0 -5 5 -7 10 -4 6 3 10 8 10 11 0 2 -4 4 -10 4 -5 0 -10
-5 -10 -11z"/>
</g>
</svg>
