<?xml version="1.0" encoding="UTF-8" standalone="no"?>
<!-- Created with Inkscape (http://www.inkscape.org/) -->

<svg
   width="391.83594mm"
   height="200.98831mm"
   viewBox="0 0 391.83594 200.98831"
   version="1.1"
   id="svg16914"
   inkscape:version="1.1.2 (0a00cf5339, 2022-02-04)"
   sodipodi:docname="eclipse_header.svg"
   inkscape:export-filename="eclipse_logo.png"
   inkscape:export-xdpi="92.980003"
   inkscape:export-ydpi="92.980003"
   xml:space="preserve"
   xmlns:inkscape="http://www.inkscape.org/namespaces/inkscape"
   xmlns:sodipodi="http://sodipodi.sourceforge.net/DTD/sodipodi-0.dtd"
   xmlns:xlink="http://www.w3.org/1999/xlink"
   xmlns="http://www.w3.org/2000/svg"
   xmlns:svg="http://www.w3.org/2000/svg"><sodipodi:namedview
     id="namedview16916"
     pagecolor="#505050"
     bordercolor="#eeeeee"
     borderopacity="1"
     inkscape:showpageshadow="0"
     inkscape:pageopacity="0"
     inkscape:pagecheckerboard="0"
     inkscape:deskcolor="#505050"
     inkscape:document-units="mm"
     showgrid="false"
     inkscape:zoom="0.84096521"
     inkscape:cx="485.15681"
     inkscape:cy="570.77272"
     inkscape:window-width="2858"
     inkscape:window-height="1443"
     inkscape:window-x="979"
     inkscape:window-y="1120"
     inkscape:window-maximized="0"
     inkscape:current-layer="layer1"
     inkscape:pageshadow="2"
     fit-margin-top="0"
     fit-margin-left="0"
     fit-margin-right="0"
     fit-margin-bottom="0" /><defs
     id="defs16911"><linearGradient
       inkscape:collect="always"
       id="linearGradient60473"><stop
         style="stop-color:#000000;stop-opacity:1;"
         offset="0"
         id="stop60469" /><stop
         style="stop-color:#000000;stop-opacity:0;"
         offset="1"
         id="stop60471" /></linearGradient><linearGradient
       inkscape:collect="always"
       id="linearGradient56896"><stop
         style="stop-color:#000000;stop-opacity:1;"
         offset="0"
         id="stop56892" /><stop
         style="stop-color:#000000;stop-opacity:0;"
         offset="1"
         id="stop56894" /></linearGradient><linearGradient
       inkscape:collect="always"
       id="linearGradient53551"><stop
         style="stop-color:#000000;stop-opacity:1;"
         offset="0"
         id="stop53547" /><stop
         style="stop-color:#000000;stop-opacity:0;"
         offset="1"
         id="stop53549" /></linearGradient><linearGradient
       inkscape:collect="always"
       id="linearGradient21719"><stop
         style="stop-color:#000000;stop-opacity:1;"
         offset="0.85148513"
         id="stop21715" /><stop
         style="stop-color:#4d4300;stop-opacity:1;"
         offset="1"
         id="stop21717" /></linearGradient><linearGradient
       id="linearGradient21647"
       inkscape:swatch="solid"><stop
         style="stop-color:#252525;stop-opacity:1;"
         offset="0"
         id="stop21645" /></linearGradient><radialGradient
       inkscape:collect="always"
       xlink:href="#linearGradient16195"
       id="radialGradient15138"
       cx="589.22052"
       cy="149.61813"
       fx="589.22052"
       fy="149.61813"
       r="55.64901"
       gradientTransform="matrix(1.2271696,0,0,1.2271696,-647.04381,-117.87391)"
       gradientUnits="userSpaceOnUse" /><linearGradient
       inkscape:collect="always"
       id="linearGradient16195"><stop
         style="stop-color:#ffd42a;stop-opacity:1;"
         offset="0"
         id="stop16187" /><stop
         style="stop-color:#ffcd00;stop-opacity:1;"
         offset="0.6573146"
         id="stop16189" /><stop
         style="stop-color:#000000;stop-opacity:0.26224783;"
         offset="0.83689731"
         id="stop16191" /><stop
         style="stop-color:#100d00;stop-opacity:0;"
         offset="1"
         id="stop16193" /></linearGradient><radialGradient
       inkscape:collect="always"
       xlink:href="#linearGradient15136"
       id="radialGradient15138-6"
       cx="589.22052"
       cy="149.61813"
       fx="589.22052"
       fy="149.61813"
       r="55.64901"
       gradientTransform="matrix(0.23595107,0,0,0.42534749,-62.745973,28.7462)"
       gradientUnits="userSpaceOnUse" /><linearGradient
       inkscape:collect="always"
       id="linearGradient15136"><stop
         style="stop-color:#ffcd00;stop-opacity:1;"
         offset="0"
         id="stop15132" /><stop
         style="stop-color:#f7c700;stop-opacity:0.8627451;"
         offset="0.13366337"
         id="stop19624" /><stop
         style="stop-color:#caa200;stop-opacity:0;"
         offset="1"
         id="stop15134" /></linearGradient><clipPath
       clipPathUnits="userSpaceOnUse"
       id="clipPath18712"><rect
         style="fill:#000000;stroke:#000000;stroke-width:4.205;stroke-linecap:round;stroke-linejoin:bevel"
         id="rect18714"
         width="42.788136"
         height="43.41737"
         x="-90.628716"
         y="84.928513" /></clipPath><radialGradient
       inkscape:collect="always"
       xlink:href="#linearGradient21719"
       id="radialGradient21721"
       cx="74.249992"
       cy="67.957634"
       fx="74.249992"
       fy="67.957634"
       r="49.197411"
       gradientUnits="userSpaceOnUse" /><linearGradient
       inkscape:collect="always"
       xlink:href="#linearGradient53551"
       id="linearGradient53553"
       x1="68.583397"
       y1="-51.964592"
       x2="85.852303"
       y2="-51.964592"
       gradientUnits="userSpaceOnUse" /><linearGradient
       inkscape:collect="always"
       xlink:href="#linearGradient56896"
       id="linearGradient56898"
       x1="90.059174"
       y1="-24.923594"
       x2="112.29349"
       y2="-24.923594"
       gradientUnits="userSpaceOnUse" /><linearGradient
       inkscape:collect="always"
       xlink:href="#linearGradient60473"
       id="linearGradient60475"
       x1="115.87011"
       y1="2.1174073"
       x2="134.39952"
       y2="2.1174073"
       gradientUnits="userSpaceOnUse" /></defs><g
     inkscape:label="Layer 1"
     inkscape:groupmode="layer"
     id="layer1"
     transform="translate(-7.7389679,66.964591)"><circle
       style="fill:url(#radialGradient15138);fill-opacity:1;stroke:none;stroke-width:5.83694;stroke-linecap:round;stroke-linejoin:bevel;stroke-dasharray:none;stroke-opacity:1"
       id="path13976"
       cx="76.029747"
       cy="65.732941"
       r="68.290779" /><ellipse
       style="fill:url(#radialGradient15138-6);fill-opacity:1;stroke:none;stroke-width:1.50682;stroke-linecap:round;stroke-linejoin:bevel;stroke-dasharray:none;stroke-opacity:1"
       id="path13976-6"
       cx="76.281235"
       cy="92.385918"
       rx="13.130444"
       ry="23.67017"
       transform="rotate(-32.121601)" /><ellipse
       style="fill:url(#radialGradient21721);fill-opacity:1;stroke:none;stroke-width:4.205;stroke-linecap:round;stroke-linejoin:bevel;stroke-dasharray:none;stroke-opacity:1"
       id="path13976-3"
       cx="74.249992"
       cy="67.957634"
       rx="49.197411"
       ry="49.197414" /><path
       style="fill:#ffd42a;fill-opacity:1;stroke:#000000;stroke-width:0.101437;stroke-opacity:1"
       d="m 73.120759,104.94746 c -0.67013,-0.35379 -1.03691,-0.93891 -1.08761,-1.73506 -0.0358,-0.56274 -0.004,-0.71684 0.24183,-1.16841 0.18199,-0.33438 0.4383,-0.61839 0.71761,-0.79516 l 0.43448,-0.27499 0.004,-2.978728 0.004,-2.97874 -1.53818,-2.296 c -0.84599,-1.26282 -1.8274,-2.71336 -2.18089,-3.22345 l -0.64275,-0.92744 v -2.74967 -2.74966 l -1.09044,-2e-5 h -1.09044 v 5.74633 5.7463 l -3.19527,2.35481 c -1.75742,1.29513 -3.18239,2.41113 -3.16663,2.48 0.2159,0.943158 0.0738,1.659708 -0.44225,2.230928 -0.4656,0.51536 -0.9145,0.71474 -1.60917,0.71474 -1.84767,0 -2.83923,-2.06214 -1.67198,-3.477168 0.48785,-0.59143 1.01359,-0.81586 1.75908,-0.75095 0.33933,0.0295 0.69909,0.0687 0.79944,0.0867 0.11117,0.0201 1.34704,-0.81804 3.16656,-2.14782 l 2.98413,-2.18089 0.002,-5.43847 0.002,-5.43847 -0.43112,-0.0631 c -0.23722,-0.0348 -0.53381,-0.0918 -0.65933,-0.12707 l -0.22836,-0.0639 v 3.285 3.285 l -2.66272,1.72982 -2.66274,1.72983 -0.0584,0.65213 c -0.0699,0.78031 -0.26542,1.18734 -0.77062,1.60378 -0.80926,0.66705 -1.94945,0.64187 -2.77083,-0.0613 -1.55611,-1.332 -0.40935,-3.99016 1.61784,-3.75006 0.26142,0.0309 0.63877,0.13423 0.83856,0.2295 l 0.36326,0.17321 1.60732,-1.03941 c 0.88404,-0.57168 1.93818,-1.25133 2.34256,-1.51036 l 0.73523,-0.47096 2e-4,-3.21006 2.1e-4,-3.21006 -0.49852,-0.3199 c -0.80487,-0.51637 -1.93898,-1.77985 -2.39504,-2.66814 l -0.40323,-0.78534 -2.69414,-4.3e-4 -2.69417,-4.4e-4 -1.46333,2.3077 c -0.80484,1.26924 -1.4574,2.399 -1.45011,2.51058 0.007,0.11161 0.0944,0.42714 0.19361,0.70124 0.34888,0.96419 -0.11813,2.0818 -1.07386,2.57012 -1.36526,0.69751 -3.03665,-0.34935 -3.03665,-1.90196 0,-0.47062 0.28202,-1.22156 0.58437,-1.55588 0.30637,-0.3388 0.94715,-0.59679 1.52643,-0.61463 l 0.55631,-0.0171 1.67949,-2.65937 1.67952,-2.65937 h 2.91878 2.91882 v -0.34236 c 0,-0.18828 -0.0285,-0.4854 -0.0634,-0.66027 l -0.0634,-0.31792 -5.0746,0.0263 -5.07455,0.0263 -2.11886,2.94169 c -2.11775,2.94014 -2.11882,2.94189 -2.04014,3.34742 0.39077,2.0142 -1.33829,3.46042 -3.06265,2.56167 -1.35387,-0.70565 -1.44025,-2.74089 -0.15574,-3.67048 0.3997,-0.28926 0.49143,-0.31136 1.29495,-0.31208 0.84182,-7.1e-4 0.87081,-0.008 1.09169,-0.30432 0.12484,-0.16693 1.15191,-1.59306 2.28249,-3.16914 l 2.05554,-2.8656 h 5.41381 5.41381 v -1.06508 -1.06509 h -2.44001 -2.44003 l -2.75865,-1.89416 c -1.51725,-1.04179 -2.98059,-2.04602 -3.25185,-2.23163 l -0.4932,-0.33747 h -2.8277 -2.82758 l -0.24545,0.38881 c -0.51881,0.82185 -1.24712,1.2008 -2.11113,1.09846 -0.65087,-0.0771 -1.1514,-0.39505 -1.50867,-0.95841 -0.87122,-1.37379 -0.0616,-3.10906 1.55403,-3.3305 0.76998,-0.10553 1.81894,0.48613 2.11073,1.19057 l 0.12101,0.2924 h 8.55915 8.55914 v -1.31874 -1.318688 l -4.69146,-10e-4 -4.69149,-10e-4 -1.93681,-2.71234 -1.93679,-2.71233 -1.94,-0.0276 -1.94001,-0.0275 -0.20798,0.40782 c -0.27247,0.53408 -0.88129,0.93211 -1.51952,0.99344 -0.76169,0.0732 -1.15143,-0.0426 -1.66498,-0.49463 -1.47769,-1.30072 -0.57699,-3.73127 1.38609,-3.74028 0.79367,-0.004 1.48657,0.41473 1.84964,1.11682 l 0.15575,0.30107 h 2.26046 2.26044 l 1.96589,2.73881 1.9659,2.73881 h 4.34251 4.34251 v -1.26796 -1.26797 l -3.98141,-5.1e-4 -3.98141,-5.1e-4 -1.24701,-1.82537 -1.24704,-1.82536 -0.57883,-9.1e-4 c -0.82262,-10e-4 -1.49891,-0.40044 -1.88703,-1.11351 -0.24951,-0.45842 -0.28126,-0.6105 -0.24534,-1.17481 0.0329,-0.51383 0.10374,-0.73705 0.34231,-1.07657 0.73093,-1.03995 2.08192,-1.24967 3.02777,-0.47001 0.75532,0.62261 1.02187,1.72281 0.62863,2.59484 l -0.18522,0.41072 1.08263,1.58168 1.08262,1.58167 h 3.68183 3.68184 l 0.20943,-0.63398 c 0.11526,-0.3487 0.24057,-0.71387 0.27871,-0.8115 0.0651,-0.16667 -0.11716,-0.17751 -2.98458,-0.17751 l -3.05397,-4e-5 v -2.01396 -2.01404 l -0.44868,-0.28361 c -1.58101,-0.99933 -1.15167,-3.49871 0.67106,-3.90662 0.68476,-0.15325 1.26039,-0.0137 1.76296,0.42765 0.57689,0.50652 0.78127,1.00895 0.73603,1.80946 -0.0458,0.81168 -0.36187,1.35171 -1.00122,1.71105 l -0.40725,0.22888 0.0283,1.33593 0.0283,1.33593 2.80454,0.0269 2.80454,0.0269 0.23983,-0.28054 c 0.43336,-0.50689 1.23737,-1.15319 1.88549,-1.51563 l 0.63713,-0.3563 -0.0268,-3.055 -0.0268,-3.05502 -2.2316,-1.45671 c -1.22742,-0.8012 -2.28961,-1.48149 -2.36044,-1.51175 -0.071,-0.0303 -0.35319,0.0415 -0.62743,0.15947 -1.145,0.49255 -2.30221,0.0494 -2.81909,-1.07959 -0.20559,-0.44891 -0.24262,-0.65176 -0.19409,-1.06098 0.13755,-1.16143 1.0108,-1.95639 2.14648,-1.95402 1.21503,0.003 2.08114,0.84959 2.16166,2.11406 l 0.0398,0.62376 2.50034,1.61389 c 1.37518,0.88763 2.58021,1.68189 2.67784,1.765 0.16199,0.13795 0.17756,0.42728 0.17756,3.32118 0,2.96517 0.012,3.16775 0.17756,3.13413 0.0975,-0.0196 0.39472,-0.064 0.66021,-0.0983 l 0.48274,-0.0623 -0.0263,-5.38954 -0.0263,-5.38953 -3.01346,-2.21105 c -2.7812,-2.04064 -3.03383,-2.20329 -3.27794,-2.11047 -0.68847,0.26174 -1.67912,0.0407 -2.25462,-0.5031 -0.94165,-0.88977 -0.79073,-2.605882 0.29215,-3.322509 0.5667,-0.37503 1.4898,-0.441601 2.1393,-0.154299 0.86175,0.381198 1.38036,1.440798 1.17544,2.401618 -0.0897,0.42027 -0.0791,0.4956 0.0856,0.61337 0.10332,0.0739 0.8723,0.64075 1.70915,1.25981 0.83686,0.61905 2.19407,1.61598 3.01605,2.2154 l 1.49449,1.08986 0.002,5.75657 0.002,5.75657 h 1.11582 1.1158 v -2.76328 -2.76329 l 0.34522,-0.50807 c 0.18987,-0.27944 1.17127,-1.73467 2.18091,-3.23385 l 1.83568,-2.72579 -0.003,-2.9547 -0.003,-2.954703 -0.45184,-0.274163 c -1.82287,-1.106069 -1.04419,-3.927661 1.08563,-3.933818 0.70565,-0.0021 0.96432,0.0909 1.45674,0.523207 0.69845,0.613248 0.9399,1.57775 0.59913,2.393321 -0.19072,0.456409 -0.47985,0.780185 -0.98417,1.101988 l -0.38039,0.24273 v 8.908308 c 0,4.89957 0.0189,8.92732 0.042,8.95057 0.0231,0.0233 0.63792,0.0284 1.36637,0.0113 l 1.32447,-0.031 -0.002,-4.97315 c -0.002,-3.14635 0.0344,-5.01668 0.0982,-5.09163 0.0554,-0.0651 1.26522,-0.96294 2.68856,-1.99507 l 2.58791,-1.87659 0.005,-1.98152 0.005,-1.981508 -0.30699,-0.181335 c -1.41182,-0.833979 -1.48689,-2.800806 -0.14164,-3.71124 0.43534,-0.294628 1.35189,-0.395982 1.9113,-0.211359 1.65609,0.546552 1.92563,2.858107 0.44388,3.806603 l -0.47541,0.304313 -0.005,2.295456 -0.005,2.29549 -2.7388,2.00621 -2.73881,2.00621 v 4.65016 4.65016 h 1.26797 1.26796 l 0.004,-4.28573 0.004,-4.28573 1.84682,-1.27768 1.84684,-1.27767 -0.0328,-0.40829 c -0.10363,-1.28964 0.87607,-2.35737 2.16299,-2.35737 0.64832,0 1.25026,0.2747 1.64118,0.74893 0.91763,1.11326 0.58803,2.65847 -0.70812,3.31971 -0.49888,0.25452 -1.2845,0.26546 -1.81705,0.0252 -0.46807,-0.21107 -0.38835,-0.24733 -2.13999,0.97347 l -1.38267,0.96366 -0.003,3.92326 c -0.003,3.59528 -0.0172,3.92601 -0.17371,3.95615 -0.0939,0.0179 0.24844,0.15036 0.76078,0.29393 l 0.93155,0.26104 v -3.22817 c 0,-1.7755 0.0342,-3.23022 0.0761,-3.23271 0.0418,-0.002 0.96239,-0.0139 2.04566,-0.0254 1.42784,-0.0151 1.98076,-0.0544 2.01022,-0.14276 0.22853,-0.68573 1.2324,-1.34891 2.04189,-1.34891 1.16724,0 2.14402,1.02453 2.14402,2.24883 0,0.56724 -0.47027,1.38397 -0.98474,1.71024 -1.07164,0.67961 -2.35134,0.38999 -3.03152,-0.68611 l -0.27353,-0.43271 h -1.30098 -1.30098 l -0.0284,2.96705 -0.0284,2.96703 0.3043,0.25113 c 0.4323,0.35676 0.88323,0.82349 1.2118,1.25426 l 0.28313,0.37121 h 2.72678 2.72676 v -1.30171 -1.30169 l -0.37254,-0.24523 c -0.20482,-0.13488 -0.51223,-0.41976 -0.6831,-0.63306 -0.27133,-0.33869 -0.31551,-0.48303 -0.34864,-1.1389 -0.0337,-0.66858 -0.008,-0.80169 0.23223,-1.21207 0.50084,-0.8546 1.4578,-1.23862 2.41719,-0.97001 0.54779,0.15337 0.9937,0.5401 1.28809,1.11716 0.19275,0.3778 0.22189,0.56158 0.18063,1.13852 -0.0562,0.78561 -0.31696,1.22294 -0.99778,1.67348 l -0.39753,0.26308 v 2.01527 2.01526 h -2.9924 c -2.01227,0 -2.99241,0.0346 -2.99241,0.10596 0,0.0582 0.074,0.40063 0.16451,0.76078 l 0.16449,0.65483 3.7662,-0.001 3.76622,-10e-4 0.8622,-1.26663 c 1.34762,-1.9797 1.26965,-1.81366 1.05953,-2.25646 -0.28335,-0.59712 -0.23182,-1.45417 0.1223,-2.03456 0.52089,-0.8537 1.662841,-1.24595 2.549271,-0.87567 1.48695,0.62114 1.81006,2.65673 0.58232,3.66874 -0.44966,0.37065 -1.13224,0.58363 -1.59591,0.49797 -0.323821,-0.0598 -0.350261,-0.0375 -0.891621,0.75394 -0.30685,0.44858 -0.8791,1.28113 -1.27166,1.85012 l -0.71375,1.03452 -4.07917,0.0265 -4.07916,0.0265 v 1.26682 1.26681 l 4.43789,-0.002 4.43788,-0.002 1.937821,-2.71131 1.93782,-2.71131 2.27183,-0.0276 2.27183,-0.0276 0.22833,-0.39841 c 0.98555,-1.71963 3.43568,-1.30549 3.88709,0.65703 0.37354,1.62394 -1.30189,3.06511 -2.82397,2.42914 -0.45641,-0.19071 -0.78018,-0.47985 -1.10198,-0.98417 l -0.24274,-0.38039 -1.79922,0.001 c -0.98959,8.2e-4 -1.84769,0.0351 -1.90689,0.0761 -0.0592,0.041 -0.96644,1.27275 -2.01605,2.73725 l -1.908421,2.66276 h -4.80561 -4.80561 v 1.318678 1.31868 h 8.67028 8.670291 l 0.15568,-0.30106 c 0.54894,-1.06151 1.99669,-1.43612 2.99556,-0.77509 0.46467,0.30749 0.76034,0.73314 0.9233,1.32919 0.28873,1.05603 -0.50388,2.33838 -1.58763,2.56864 -0.92056,0.19557 -1.72471,-0.13563 -2.2281,-0.91774 l -0.30432,-0.47279 -2.89951,-0.005 -2.8995,-0.005 -0.60009,0.42117 c -0.330041,0.23163 -1.751231,1.21304 -3.158171,2.1809 l -2.55811,1.75974 h -2.58985 -2.58984 v 1.11494 1.11495 l 5.54924,0.0262 5.549231,0.0262 1.34888,1.87658 c 0.74188,1.03213 1.76783,2.46039 2.27989,3.17393 0.91664,1.27728 0.93585,1.29612 1.24225,1.21853 0.7552,-0.19121 1.65603,0.0571 2.15759,0.59485 0.56041,0.60078 0.70335,1.69398 0.31997,2.44703 -0.25977,0.51025 -0.50721,0.74483 -1.05054,0.99589 -1.57673,0.72862 -3.23007,-0.71548 -2.87101,-2.50765 l 0.10395,-0.5187 -2.1632,-3.00625 -2.163191,-3.00625 h -5.15469 c -4.03516,0 -5.16326,0.0275 -5.19407,0.1268 -0.0216,0.0697 -0.0673,0.36577 -0.10154,0.65786 l -0.0622,0.53105 3.06468,0.0268 3.06469,0.0268 1.6808,2.6593 1.68082,2.65931 0.50718,0.006 c 1.328411,0.0148 2.285501,1.08862 2.149011,2.41111 -0.20336,1.97046 -2.731881,2.60329 -3.822551,0.95669 -0.4708,-0.7108 -0.49605,-1.30452 -0.0979,-2.30151 0.11721,-0.2935 0.0693,-0.38727 -1.34683,-2.63737 l -1.46835,-2.33307 -2.98731,-0.0268 -2.9873,-0.0268 -0.15888,0.33115 c -0.31896,0.66472 -1.11782,1.59332 -1.85936,2.16129 l -0.75955,0.58177 v 2.77546 2.77546 h 1.35709 1.35711 l 0.12773,-0.30838 c 0.18985,-0.45833 0.85347,-0.9762 1.42738,-1.11388 1.3638,-0.32718 2.62027,0.6828 2.6262,2.11101 0.006,1.50297 -1.54677,2.5666 -2.91364,1.99548 -0.44911,-0.18765 -0.67439,-0.37874 -1.04742,-0.88844 l -0.28187,-0.38509 -1.96027,5e-5 -1.96028,6e-5 -0.0507,-3.16527 c -0.0386,-2.4075 -0.0802,-3.15945 -0.17398,-3.14107 -0.0678,0.0135 -0.42209,0.0809 -0.78729,0.15015 l -0.66403,0.12597 0.0265,3.95286 0.0265,3.95285 1.51418,1.05851 1.51417,1.05852 0.46386,-0.16624 c 1.05665,-0.37868 2.07583,-0.10206 2.67584,0.72622 0.25388,0.35046 0.32267,0.55817 0.35547,1.07324 0.0462,0.72634 -0.13994,1.20171 -0.68832,1.75737 -0.41402,0.4195 -0.89454,0.57154 -1.63682,0.51784 -1.15588,-0.0836 -1.94983,-0.98123 -1.93978,-2.19306 l 0.005,-0.57602 -1.82331,-1.26795 -1.82329,-1.26796 -0.0185,-4.26038 -0.0185,-4.26037 h -1.26797 -1.26797 l -0.0264,4.5849 -0.0264,4.58489 0.3307,0.26112 c 0.18189,0.14359 1.4034,1.05117 2.71448,2.01683 l 2.38377,1.75575 0.0272,2.29931 0.0272,2.299298 0.3869,0.24425 c 1.32166,0.83433 1.50947,2.43578 0.40782,3.47751 -0.43762,0.41381 -0.77821,0.53877 -1.46852,0.53877 -0.62627,0 -1.15515,-0.22614 -1.58305,-0.67685 -0.29694,-0.31277 -0.5872,-1.01915 -0.5872,-1.42897 0,-0.73597 0.59633,-1.6945 1.21317,-1.94999 l 0.30838,-0.12774 v -1.954368 -1.95437 l -1.69908,-1.24364 c -0.93449,-0.684 -2.16694,-1.58898 -2.7388,-2.01108 l -1.03974,-0.76743 v -4.99957 -4.99945 h -1.31868 -1.31868 l 0.005,8.95184 0.005,8.951838 0.47095,0.30966 c 1.27903,0.84098 1.26995,2.69974 -0.0175,3.57032 -0.4207,0.28449 -0.57413,0.32967 -1.11944,0.32967 -0.46579,0 -0.74946,-0.062 -1.07898,-0.23602 z m 0.31372,-17.205848 v -4.66077 l -1.42175,-0.0307 c -0.78198,-0.0167 -1.45527,-0.0192 -1.49621,-0.006 -0.0409,0.014 -0.0665,1.16516 -0.0568,2.55819 l 0.0177,2.53278 1.24274,1.85433 c 1.29685,1.93508 1.6297,2.41226 1.68263,2.41226 0.0175,0 0.0316,-2.09735 0.0316,-4.66078 z m 9.27007,-7.61067 c 1.81154,-0.29668 3.27391,-1.71705 3.60352,-3.50006 0.15164,-0.82019 0.15286,-16.522928 10e-4,-17.342438 -0.29053,-1.57161 -1.31551,-2.76642 -2.88338,-3.36115 -0.48067,-0.18232 -0.94654,-0.19395 -8.91077,-0.22218 -5.50518,-0.0194 -8.60013,0.006 -8.97346,0.0756 -1.87807,0.34718 -3.30573,1.8146 -3.57463,3.67423 -0.12508,0.86489 -0.12292,16.295988 0.002,17.061068 0.29487,1.80056 1.77289,3.31407 3.52386,3.60845 0.70607,0.11871 16.48951,0.12467 17.21109,0.006 z m -17.32884,-1.59778 c -0.59533,-0.15146 -1.3586,-0.85913 -1.67101,-1.54925 -0.20248,-0.44746 -0.20679,-0.62445 -0.20895,-8.96544 -0.002,-6.234078 0.0297,-8.615428 0.11718,-8.907128 0.16581,-0.55362 0.84063,-1.28299 1.44909,-1.56633 l 0.51106,-0.23798 8.50897,-0.001 c 6.36569,-7.1e-4 8.61415,0.0299 8.92649,0.12185 0.56395,0.16591 1.49819,1.10014 1.6641,1.66409 0.0918,0.31225 0.12282,2.56615 0.12282,8.939458 0,9.45808 0.0415,8.87252 -0.68701,9.68071 -0.20793,0.23068 -0.60632,0.52591 -0.88527,0.65609 l -0.50719,0.2367 -8.57145,-0.0108 c -4.71431,-0.006 -8.66027,-0.0334 -8.76883,-0.0609 z m 30.55633,-8.50718 c 1.09976,-0.75838 2.06641,-1.44308 2.1481,-1.52156 0.12773,-0.12273 -0.47923,-0.14269 -4.33646,-0.14269 h -4.48497 v 1.52156 1.52157 h 2.33688 2.33688 z m -36.90167,-0.75131 v -1.52157 h -4.3618 c -2.39899,0 -4.36142,0.0342 -4.36094,0.0761 5.3e-4,0.0418 0.94766,0.72634 2.10484,1.52109 l 2.10394,1.44501 2.25699,5e-4 2.25697,4.5e-4 z m 15.01273,-21.104198 c 0,-2.56349 -0.0342,-4.65907 -0.0761,-4.65684 -0.0419,0.002 -0.72654,0.97479 -1.52157,2.16121 l -1.44547,2.15712 v 2.48802 c 0,1.36841 0.0189,2.50704 0.042,2.53028 0.0231,0.0233 0.70777,0.0285 1.52155,0.0118 l 1.47961,-0.0306 z"
       id="path2475-4-4" /><text
       xml:space="preserve"
       style="font-style:normal;font-variant:normal;font-weight:bold;font-stretch:normal;font-size:42.0168px;line-height:1.25;font-family:sans-serif;-inkscape-font-specification:'sans-serif Bold';word-spacing:0px;fill:#eec100;fill-opacity:0.968627;stroke-width:0.218837"
       x="64.801888"
       y="-36.964596"
       id="text12780"><tspan
         sodipodi:role="line"
         id="tspan12778"
         style="font-style:normal;font-variant:normal;font-weight:bold;font-stretch:normal;font-size:42.0168px;font-family:sans-serif;-inkscape-font-specification:'sans-serif Bold';fill:#eec100;fill-opacity:0.968627;stroke-width:0.218837"
         x="64.801888"
         y="-36.964596">E</tspan></text><text
       xml:space="preserve"
       style="font-style:normal;font-variant:normal;font-weight:bold;font-stretch:normal;font-size:42.0168px;line-height:1.25;font-family:sans-serif;-inkscape-font-specification:'sans-serif Bold';word-spacing:0px;fill:#eec100;fill-opacity:0.968627;stroke-width:0.218837"
       x="208.5528"
       y="125.28141"
       id="text12780-90"><tspan
         sodipodi:role="line"
         id="tspan12778-9"
         style="font-style:normal;font-variant:normal;font-weight:bold;font-stretch:normal;font-size:42.0168px;font-family:sans-serif;-inkscape-font-specification:'sans-serif Bold';fill:#eec100;fill-opacity:0.968627;stroke-width:0.218837"
         x="208.5528"
         y="125.28141">E</tspan></text><text
       xml:space="preserve"
       style="font-style:normal;font-variant:normal;font-weight:bold;font-stretch:normal;font-size:40.8719px;line-height:1.25;font-family:sans-serif;-inkscape-font-specification:'sans-serif Bold';word-spacing:0px;fill:#eec100;fill-opacity:0.968627;stroke-width:0.212874"
       x="87.688606"
       y="-10.332326"
       id="text12780-2"><tspan
         sodipodi:role="line"
         id="tspan12778-2"
         style="font-style:normal;font-variant:normal;font-weight:bold;font-stretch:normal;font-size:40.8719px;font-family:sans-serif;-inkscape-font-specification:'sans-serif Bold';fill:#eec100;fill-opacity:0.968627;stroke-width:0.212874"
         x="87.688606"
         y="-10.332326">C</tspan></text><text
       xml:space="preserve"
       style="font-style:normal;font-variant:normal;font-weight:bold;font-stretch:normal;font-size:42.0168px;line-height:1.25;font-family:sans-serif;-inkscape-font-specification:'sans-serif Bold';word-spacing:0px;fill:#eec100;fill-opacity:0.968627;stroke-width:0.218837"
       x="112.0886"
       y="17.117405"
       id="text12780-6"><tspan
         sodipodi:role="line"
         id="tspan12778-1"
         style="font-style:normal;font-variant:normal;font-weight:bold;font-stretch:normal;font-size:42.0168px;font-family:sans-serif;-inkscape-font-specification:'sans-serif Bold';fill:#eec100;fill-opacity:0.968627;stroke-width:0.218837"
         x="112.0886"
         y="17.117405">L</tspan></text><text
       xml:space="preserve"
       style="font-style:normal;font-variant:normal;font-weight:bold;font-stretch:normal;font-size:42.0168px;line-height:1.25;font-family:sans-serif;-inkscape-font-specification:'sans-serif Bold';word-spacing:0px;fill:#eec100;fill-opacity:0.968627;stroke-width:0.218837"
       x="140.92104"
       y="44.158405"
       id="text12780-0"><tspan
         sodipodi:role="line"
         id="tspan12778-6"
         style="font-style:normal;font-variant:normal;font-weight:bold;font-stretch:normal;font-size:42.0168px;font-family:sans-serif;-inkscape-font-specification:'sans-serif Bold';fill:#eec100;fill-opacity:0.968627;stroke-width:0.218837"
         x="140.92104"
         y="44.158405">I</tspan></text><text
       xml:space="preserve"
       style="font-style:normal;font-variant:normal;font-weight:bold;font-stretch:normal;font-size:42.0168px;line-height:1.25;font-family:sans-serif;-inkscape-font-specification:'sans-serif Bold';word-spacing:0px;fill:#eec100;fill-opacity:0.968627;stroke-width:0.218837"
       x="158.91313"
       y="71.199409"
       id="text12780-1"><tspan
         sodipodi:role="line"
         id="tspan12778-5"
         style="font-style:normal;font-variant:normal;font-weight:bold;font-stretch:normal;font-size:42.0168px;font-family:sans-serif;-inkscape-font-specification:'sans-serif Bold';fill:#eec100;fill-opacity:0.968627;stroke-width:0.218837"
         x="158.91313"
         y="71.199409">P</tspan></text><text
       xml:space="preserve"
       style="font-style:normal;font-variant:normal;font-weight:bold;font-stretch:normal;font-size:40.8719px;line-height:1.25;font-family:sans-serif;-inkscape-font-specification:'sans-serif Bold';word-spacing:0px;fill:#eec100;fill-opacity:0.968627;stroke-width:0.212874"
       x="185.62746"
       y="97.831673"
       id="text12780-9"><tspan
         sodipodi:role="line"
         id="tspan12778-4"
         style="font-style:normal;font-variant:normal;font-weight:bold;font-stretch:normal;font-size:40.8719px;font-family:sans-serif;-inkscape-font-specification:'sans-serif Bold';fill:#eec100;fill-opacity:0.968627;stroke-width:0.212874"
         x="185.62746"
         y="97.831673">S</tspan></text><text
       xml:space="preserve"
       style="font-style:normal;font-variant:normal;font-weight:bold;font-stretch:normal;font-size:40.8719px;line-height:1.25;font-family:sans-serif;-inkscape-font-specification:'sans-serif Bold';word-spacing:0px;fill:#eec100;fill-opacity:0.968627;stroke-width:0.212874"
       x="327.76312"
       y="124.77429"
       id="text12780-9-4"><tspan
         sodipodi:role="line"
         id="tspan12778-4-8"
         style="font-style:normal;font-variant:normal;font-weight:bold;font-stretch:normal;font-size:40.8719px;font-family:sans-serif;-inkscape-font-specification:'sans-serif Bold';fill:#eec100;fill-opacity:0.968627;stroke-width:0.212874"
         x="327.76312"
         y="124.77429">Lab</tspan></text><text
       xml:space="preserve"
       style="font-size:16.9333px;line-height:1.25;font-family:sans-serif;word-spacing:0px;fill:#ffffff;fill-opacity:0.968627;stroke-width:0.264583"
       x="96.758842"
       y="-46.948524"
       id="text37477"><tspan
         sodipodi:role="line"
         id="tspan37475"
         style="font-size:16.9333px;fill:#ffffff;fill-opacity:0.968627;stroke-width:0.264583"
         x="96.758842"
         y="-46.948524">lectron microscopy</tspan></text><text
       xml:space="preserve"
       style="font-size:16.9333px;line-height:1.25;font-family:sans-serif;word-spacing:0px;fill:#ffffff;fill-opacity:0.968627;stroke-width:0.264583"
       x="121.22974"
       y="-18.689873"
       id="text37477-1"><tspan
         sodipodi:role="line"
         id="tspan37475-7"
         style="font-size:16.9333px;fill:#ffffff;fill-opacity:0.968627;stroke-width:0.264583"
         x="121.22974"
         y="-18.689873">omputational imaging</tspan></text><text
       xml:space="preserve"
       style="font-size:16.9333px;line-height:1.25;font-family:sans-serif;word-spacing:0px;fill:#ffffff;fill-opacity:0.968627;stroke-width:0.264583"
       x="145.345"
       y="6.4975915"
       id="text37477-7"><tspan
         sodipodi:role="line"
         id="tspan37475-1"
         style="font-size:16.9333px;fill:#ffffff;fill-opacity:0.968627;stroke-width:0.264583"
         x="145.345"
         y="6.4975915">arge scale</tspan></text><text
       xml:space="preserve"
       style="font-size:16.9333px;line-height:1.25;font-family:sans-serif;word-spacing:0px;fill:#ffffff;fill-opacity:0.968627;stroke-width:0.264583"
       x="168.64749"
       y="32.899906"
       id="text37477-15"><tspan
         sodipodi:role="line"
         id="tspan37475-9"
         style="font-size:16.9333px;fill:#ffffff;fill-opacity:0.968627;stroke-width:0.264583"
         x="168.64749"
         y="32.899906">nverse</tspan></text><text
       xml:space="preserve"
       style="font-size:16.9333px;line-height:1.25;font-family:sans-serif;word-spacing:0px;fill:#ffffff;fill-opacity:0.968627;stroke-width:0.264583"
       x="194.79988"
       y="63.392796"
       id="text37477-77"><tspan
         sodipodi:role="line"
         id="tspan37475-6"
         style="font-size:16.9333px;fill:#ffffff;fill-opacity:0.968627;stroke-width:0.264583"
         x="194.79988"
         y="63.392796">roblems &amp;</tspan></text><text
       xml:space="preserve"
       style="font-size:16.9333px;line-height:1.25;font-family:sans-serif;word-spacing:0px;fill:#ffffff;fill-opacity:0.968627;stroke-width:0.264583"
       x="217.08128"
       y="88.91024"
       id="text37477-73"><tspan
         sodipodi:role="line"
         id="tspan37475-65"
         style="font-size:16.9333px;fill:#ffffff;fill-opacity:0.968627;stroke-width:0.264583"
         x="217.08128"
         y="88.91024">elf-driving</tspan></text><text
       xml:space="preserve"
       style="font-size:16.9333px;line-height:1.25;font-family:sans-serif;word-spacing:0px;fill:#ffffff;fill-opacity:0.968627;stroke-width:0.264583"
       x="241.04416"
       y="116.78865"
       id="text37477-6"><tspan
         sodipodi:role="line"
         id="tspan37475-3"
         style="font-size:16.9333px;fill:#ffffff;fill-opacity:0.968627;stroke-width:0.264583"
         x="241.04416"
         y="116.78865">quipment</tspan></text></g></svg>
